<?xml version="1.0" encoding="utf-8" ?>
<svg baseProfile="full" height="300" version="1.1" viewBox="-13.636363636363638 -102.13635825256921 300.0 106.99999435983442" width="300" xmlns="http://www.w3.org/2000/svg" xmlns:ev="http://www.w3.org/2001/xml-events" xmlns:xlink="http://www.w3.org/1999/xlink"><defs /><text font-size="0.0005917169547858028" transform="translate(272.60824809824686,-97.2408830259376)" x="0" y="0">43</text><text font-size="0.00039447796985720183" transform="translate(272.6078288644972,-97.24025599884601)" x="0" y="0">623 ì2</text><line stroke="black" stroke-width="5069.99161632267" transform="scale(0.00019723898492860092,-0.00019723898492860092)" x1="1382119.163323229" x2="1382128.612400599" y1="493009.9627598912" y2="493009.9627598912" /><text font-size="0.0005917169547858028" transform="translate(272.61114727027325,-97.2408830259376)" x="0" y="0">44</text><text font-size="0.00039447796985720183" transform="translate(272.61072803652365,-97.24025599884601)" x="0" y="0">623 ì2</text><line stroke="black" stroke-width="5069.99161632267" transform="scale(0.00019723898492860092,-0.00019723898492860092)" x1="1382133.862101097" x2="1382143.311178467" y1="493009.9627598912" y2="493009.9627598912" /><text font-size="0.0005917169547858028" transform="translate(272.61405582559405,-97.2408830259376)" x="0" y="0">45</text><text font-size="0.00039447796985720183" transform="translate(272.6136365918444,-97.24025599884601)" x="0" y="0">623 ì2</text><line stroke="black" stroke-width="5069.99161632267" transform="scale(0.00019723898492860092,-0.00019723898492860092)" x1="1382148.608452189" x2="1382158.057529559" y1="493009.9627598912" y2="493009.9627598912" /><text font-size="0.0005917169547858028" transform="translate(272.61693623245407,-97.2408830259376)" x="0" y="0">46</text><text font-size="0.00039447796985720183" transform="translate(272.61651699870424,-97.24025599884601)" x="0" y="0">623 ì2</text><line stroke="black" stroke-width="5069.99161632267" transform="scale(0.00019723898492860092,-0.00019723898492860092)" x1="1382163.212090821" x2="1382172.661168191" y1="493009.9627598912" y2="493009.9627598912" /><text font-size="0.0005917169547858028" transform="translate(272.6199890706766,-97.2408830259376)" x="0" y="0">47</text><text font-size="0.00039447796985720183" transform="translate(272.6195698369269,-97.24025599884601)" x="0" y="0">623 ì2</text><line stroke="black" stroke-width="5069.99161632267" transform="scale(0.00019723898492860092,-0.00019723898492860092)" x1="1382178.689955015" x2="1382188.139032385" y1="493009.9627598912" y2="493009.9627598912" /><text font-size="0.0005917169547858028" transform="translate(272.6229674298008,-97.2408830259376)" x="0" y="0">48</text><text font-size="0.00039447796985720183" transform="translate(272.6225481960511,-97.24025599884601)" x="0" y="0">623 ì2</text><line stroke="black" stroke-width="5069.99161632267" transform="scale(0.00019723898492860092,-0.00019723898492860092)" x1="1382193.790210805" x2="1382203.239288175" y1="493009.9627598912" y2="493009.9627598912" /><text font-size="0.0005917169547858028" transform="translate(272.6262580369176,-97.24532626439643)" x="0" y="0">49</text><text font-size="0.00039447796985720183" transform="translate(272.62583880316794,-97.24469923730484)" x="0" y="0">380 ì2</text><line stroke="black" stroke-width="5069.99161632267" transform="scale(0.00019723898492860092,-0.00019723898492860092)" x1="1382210.4735613" x2="1382219.922638669" y1="493032.4899416268" y2="493032.4899416268" /><text font-size="0.0005917169547858028" transform="translate(272.60824809824686,-97.23747311284055)" x="0" y="0">51</text><text font-size="0.00039447796985720183" transform="translate(272.6078288644972,-97.23684608574898)" x="0" y="0">623 ì2</text><line stroke="black" stroke-width="5069.99161632267" transform="scale(0.00019723898492860092,-0.00019723898492860092)" x1="1382119.163323229" x2="1382128.612400599" y1="492992.6745290768" y2="492992.6745290768" /><text font-size="0.0005917169547858028" transform="translate(272.61114727027325,-97.23747311284055)" x="0" y="0">52</text><text font-size="0.00039447796985720183" transform="translate(272.61072803652365,-97.23684608574898)" x="0" y="0">623 ì2</text><line stroke="black" stroke-width="5069.99161632267" transform="scale(0.00019723898492860092,-0.00019723898492860092)" x1="1382133.862101097" x2="1382143.311178467" y1="492992.6745290768" y2="492992.6745290768" /><text font-size="0.0005917169547858028" transform="translate(272.61405582559405,-97.23747311284055)" x="0" y="0">53</text><text font-size="0.00039447796985720183" transform="translate(272.6136365918444,-97.23684608574898)" x="0" y="0">623 ì2</text><line stroke="black" stroke-width="5069.99161632267" transform="scale(0.00019723898492860092,-0.00019723898492860092)" x1="1382148.608452189" x2="1382158.057529559" y1="492992.6745290768" y2="492992.6745290768" /><text font-size="0.0005917169547858028" transform="translate(272.61693623245407,-97.23747311284055)" x="0" y="0">54</text><text font-size="0.00039447796985720183" transform="translate(272.61651699870424,-97.23684608574898)" x="0" y="0">623 ì2</text><line stroke="black" stroke-width="5069.99161632267" transform="scale(0.00019723898492860092,-0.00019723898492860092)" x1="1382163.212090821" x2="1382172.661168191" y1="492992.6745290768" y2="492992.6745290768" /><text font-size="0.0005917169547858028" transform="translate(272.6199890706766,-97.23747311284055)" x="0" y="0">55</text><text font-size="0.00039447796985720183" transform="translate(272.6195698369269,-97.23684608574898)" x="0" y="0">623 ì2</text><line stroke="black" stroke-width="5069.99161632267" transform="scale(0.00019723898492860092,-0.00019723898492860092)" x1="1382178.689955015" x2="1382188.139032385" y1="492992.6745290768" y2="492992.6745290768" /><text font-size="0.0005917169547858028" transform="translate(272.6229674298008,-97.23747311284055)" x="0" y="0">56</text><text font-size="0.00039447796985720183" transform="translate(272.6225481960511,-97.23684608574898)" x="0" y="0">623 ì2</text><line stroke="black" stroke-width="5069.99161632267" transform="scale(0.00019723898492860092,-0.00019723898492860092)" x1="1382193.790210805" x2="1382203.239288175" y1="492992.6745290768" y2="492992.6745290768" /><text font-size="0.0005917169547858028" transform="translate(272.6262580369176,-97.23747311284055)" x="0" y="0">57</text><text font-size="0.00039447796985720183" transform="translate(272.62583880316794,-97.23684608574898)" x="0" y="0">759 ì2</text><line stroke="black" stroke-width="5069.99161632267" transform="scale(0.00019723898492860092,-0.00019723898492860092)" x1="1382210.4735613" x2="1382219.922638669" y1="492992.6745290768" y2="492992.6745290768" /><text font-size="0.0005917169547858028" transform="translate(272.6262580369176,-97.24184899814009)" x="0" y="0">50</text><text font-size="0.00039447796985720183" transform="translate(272.62583880316794,-97.24122197104852)" x="0" y="0">380 ì2</text><line stroke="black" stroke-width="5069.99161632267" transform="scale(0.00019723898492860092,-0.00019723898492860092)" x1="1382210.4735613" x2="1382219.922638669" y1="493014.8602308594" y2="493014.8602308594" /><text font-size="0.0005917169547858028" transform="translate(272.60738395784597,-97.22118967944763)" x="0" y="0">74</text><text font-size="0.00039447796985720183" transform="translate(272.6069647240963,-97.22056265235604)" x="0" y="0">589 ì2</text><line stroke="black" stroke-width="5069.99161632267" transform="scale(0.00019723898492860092,-0.00019723898492860092)" x1="1382114.782138641" x2="1382124.231216011" y1="492910.1176582897" y2="492910.1176582897" /><text font-size="0.0005917169547858028" transform="translate(272.6102831298725,-97.22118967944763)" x="0" y="0">75</text><text font-size="0.00039447796985720183" transform="translate(272.6098638961229,-97.22056265235604)" x="0" y="0">589 ì2</text><line stroke="black" stroke-width="5069.99161632267" transform="scale(0.00019723898492860092,-0.00019723898492860092)" x1="1382129.48091651" x2="1382138.92999388" y1="492910.1176582897" y2="492910.1176582897" /><text font-size="0.0005917169547858028" transform="translate(272.6131916851933,-97.22118967944763)" x="0" y="0">76</text><text font-size="0.00039447796985720183" transform="translate(272.6127724514437,-97.22056265235604)" x="0" y="0">589 ì2</text><line stroke="black" stroke-width="5069.99161632267" transform="scale(0.00019723898492860092,-0.00019723898492860092)" x1="1382144.227267602" x2="1382153.676344972" y1="492910.1176582897" y2="492910.1176582897" /><text font-size="0.0005917169547858028" transform="translate(272.6160720920532,-97.22118967944763)" x="0" y="0">77</text><text font-size="0.00039447796985720183" transform="translate(272.6156528583035,-97.22056265235604)" x="0" y="0">589 ì2</text><line stroke="black" stroke-width="5069.99161632267" transform="scale(0.00019723898492860092,-0.00019723898492860092)" x1="1382158.830906233" x2="1382168.279983603" y1="492910.1176582897" y2="492910.1176582897" /><text font-size="0.0005917169547858028" transform="translate(272.6191249302758,-97.22118967944763)" x="0" y="0">78</text><text font-size="0.00039447796985720183" transform="translate(272.618705696526,-97.22056265235604)" x="0" y="0">589 ì2</text><line stroke="black" stroke-width="5069.99161632267" transform="scale(0.00019723898492860092,-0.00019723898492860092)" x1="1382174.308770427" x2="1382183.757847798" y1="492910.1176582897" y2="492910.1176582897" /><text font-size="0.0005917169547858028" transform="translate(272.62210328939983,-97.22118967944763)" x="0" y="0">79</text><text font-size="0.00039447796985720183" transform="translate(272.6216840556502,-97.22056265235604)" x="0" y="0">589 ì2</text><line stroke="black" stroke-width="5069.99161632267" transform="scale(0.00019723898492860092,-0.00019723898492860092)" x1="1382189.409026217" x2="1382198.858103587" y1="492910.1176582897" y2="492910.1176582897" /><text font-size="0.0005917169547858028" transform="translate(272.62539389651664,-97.2254291003641)" x="0" y="0">80</text><text font-size="0.00039447796985720183" transform="translate(272.62497466276704,-97.2248020732725)" x="0" y="0">359 ì2</text><line stroke="black" stroke-width="5069.99161632267" transform="scale(0.00019723898492860092,-0.00019723898492860092)" x1="1382206.092376712" x2="1382215.541454082" y1="492931.6114867943" y2="492931.6114867943" /><text font-size="0.0005917169547858028" transform="translate(272.60697345329675,-97.21872272510527)" x="0" y="0">82</text><text font-size="0.00039447796985720183" transform="translate(272.6065542195471,-97.21809569801368)" x="0" y="0">589 ì2</text><line stroke="black" stroke-width="5069.99161632267" transform="scale(0.00019723898492860092,-0.00019723898492860092)" x1="1382112.700884018" x2="1382122.149961388" y1="492897.6102204561" y2="492897.6102204561" /><text font-size="0.0005917169547858028" transform="translate(272.60990910343077,-97.21872272510527)" x="0" y="0">83</text><text font-size="0.00039447796985720183" transform="translate(272.6094898696811,-97.21809569801368)" x="0" y="0">589 ì2</text><line stroke="black" stroke-width="5069.99161632267" transform="scale(0.00019723898492860092,-0.00019723898492860092)" x1="1382127.584605586" x2="1382137.033682956" y1="492897.6102204561" y2="492897.6102204561" /><text font-size="0.0005917169547858028" transform="translate(272.6128548080084,-97.21872272510527)" x="0" y="0">84</text><text font-size="0.00039447796985720183" transform="translate(272.6124355742586,-97.21809569801368)" x="0" y="0">589 ì2</text><line stroke="black" stroke-width="5069.99161632267" transform="scale(0.00019723898492860092,-0.00019723898492860092)" x1="1382142.519303098" x2="1382151.968380468" y1="492897.6102204561" y2="492897.6102204561" /><text font-size="0.0005917169547858028" transform="translate(272.6158206186294,-97.21872272510527)" x="0" y="0">85</text><text font-size="0.00039447796985720183" transform="translate(272.61540138487976,-97.21809569801368)" x="0" y="0">589 ì2</text><line stroke="black" stroke-width="5069.99161632267" transform="scale(0.00019723898492860092,-0.00019723898492860092)" x1="1382157.555938083" x2="1382167.005015453" y1="492897.6102204561" y2="492897.6102204561" /><text font-size="0.0005917169547858028" transform="translate(272.62539389651664,-97.22198385749095)" x="0" y="0">81</text><text font-size="0.00039447796985720183" transform="translate(272.62497466276704,-97.22135683039936)" x="0" y="0">359 ì2</text><line stroke="black" stroke-width="5069.99161632267" transform="scale(0.00019723898492860092,-0.00019723898492860092)" x1="1382206.092376712" x2="1382215.541454082" y1="492914.1441343112" y2="492914.1441343112" /><text font-size="0.0005917169547858028" transform="translate(272.61876134646354,-97.21809343213224)" x="0" y="0">86</text><text font-size="0.00039447796985720183" transform="translate(272.61834211271395,-97.21746640504065)" x="0" y="0">589 ì2</text><line stroke="black" stroke-width="5069.99161632267" transform="scale(0.00019723898492860092,-0.00019723898492860092)" x1="1382172.465403548" x2="1382181.914480918" y1="492894.4197103586" y2="492894.4197103586" /><text font-size="0.0005917169547858028" transform="translate(272.62168555150964,-97.21809343213224)" x="0" y="0">87</text><text font-size="0.00039447796985720183" transform="translate(272.6212663177598,-97.21746640504065)" x="0" y="0">589 ì2</text><line stroke="black" stroke-width="5069.99161632267" transform="scale(0.00019723898492860092,-0.00019723898492860092)" x1="1382187.291098615" x2="1382196.740175986" y1="492894.4197103586" y2="492894.4197103586" /><text font-size="0.0005917169547858028" transform="translate(272.625444748881,-97.21809343213224)" x="0" y="0">88</text><text font-size="0.00039447796985720183" transform="translate(272.62502551513137,-97.21746640504065)" x="0" y="0">718 ì2</text><line stroke="black" stroke-width="5069.99161632267" transform="scale(0.00019723898492860092,-0.00019723898492860092)" x1="1382206.350197773" x2="1382215.799275143" y1="492894.3578410686" y2="492894.3578410686" /><text font-size="0.0005917169547858028" transform="translate(272.6346066548438,-97.26818312711804)" x="0" y="0">89</text><text font-size="0.00039447796985720183" transform="translate(272.6341874210942,-97.26755610002647)" x="0" y="0">468 ì2</text><line stroke="black" stroke-width="5069.99161632267" transform="scale(0.00019723898492860092,-0.00019723898492860092)" x1="1382252.800984194" x2="1382262.250061564" y1="493148.3121747109" y2="493148.3121747109" /><text font-size="0.0005917169547858028" transform="translate(272.63751117189287,-97.26818312711804)" x="0" y="0">90</text><text font-size="0.00039447796985720183" transform="translate(272.6370919381432,-97.26755610002647)" x="0" y="0">496 ì2</text><line stroke="black" stroke-width="5069.99161632267" transform="scale(0.00019723898492860092,-0.00019723898492860092)" x1="1382267.526861282" x2="1382276.975938651" y1="493148.3121747109" y2="493148.3121747109" /><text font-size="0.0005917169547858028" transform="translate(272.6408029592087,-97.26818312711804)" x="0" y="0">91</text><text font-size="0.00039447796985720183" transform="translate(272.64038372545906,-97.26755610002647)" x="0" y="0">495 ì2</text><line stroke="black" stroke-width="5069.99161632267" transform="scale(0.00019723898492860092,-0.00019723898492860092)" x1="1382284.216195376" x2="1382293.665272746" y1="493148.3121747109" y2="493148.3121747109" /><text font-size="0.0005917169547858028" transform="translate(272.6442399721639,-97.26818312711804)" x="0" y="0">92</text><text font-size="0.00039447796985720183" transform="translate(272.64382073841426,-97.26755610002647)" x="0" y="0">495 ì2</text><line stroke="black" stroke-width="5069.99161632267" transform="scale(0.00019723898492860092,-0.00019723898492860092)" x1="1382301.641822244" x2="1382311.090899614" y1="493148.3121747109" y2="493148.3121747109" /><text font-size="0.0005917169547858028" transform="translate(272.6473865324187,-97.26818312711804)" x="0" y="0">93</text><text font-size="0.00039447796985720183" transform="translate(272.64696729866904,-97.26755610002647)" x="0" y="0">495 ì2</text><line stroke="black" stroke-width="5069.99161632267" transform="scale(0.00019723898492860092,-0.00019723898492860092)" x1="1382317.594856356" x2="1382327.043933726" y1="493148.3121747109" y2="493148.3121747109" /><text font-size="0.0005917169547858028" transform="translate(272.65077513587937,-97.26818312711804)" x="0" y="0">94</text><text font-size="0.00039447796985720183" transform="translate(272.6503559021298,-97.26755610002647)" x="0" y="0">495 ì2</text><line stroke="black" stroke-width="5069.99161632267" transform="scale(0.00019723898492860092,-0.00019723898492860092)" x1="1382334.775047493" x2="1382344.224124864" y1="493148.3121747109" y2="493148.3121747109" /><text font-size="0.0005917169547858028" transform="translate(272.6540669231955,-97.26818312711804)" x="0" y="0">95</text><text font-size="0.00039447796985720183" transform="translate(272.6536476894458,-97.26755610002647)" x="0" y="0">494 ì2</text><line stroke="black" stroke-width="5069.99161632267" transform="scale(0.00019723898492860092,-0.00019723898492860092)" x1="1382351.464381588" x2="1382360.913458958" y1="493148.3121747109" y2="493148.3121747109" /><text font-size="0.0005917169547858028" transform="translate(272.65716507537786,-97.26818312711804)" x="0" y="0">96</text><text font-size="0.00039447796985720183" transform="translate(272.6567458416282,-97.26755610002647)" x="0" y="0">494 ì2</text><line stroke="black" stroke-width="5069.99161632267" transform="scale(0.00019723898492860092,-0.00019723898492860092)" x1="1382367.171987179" x2="1382376.621064549" y1="493148.3121747109" y2="493148.3121747109" /><text font-size="0.0005917169547858028" transform="translate(272.66060208833306,-97.26818312711804)" x="0" y="0">97</text><text font-size="0.00039447796985720183" transform="translate(272.6601828545834,-97.26755610002647)" x="0" y="0">494 ì2</text><line stroke="black" stroke-width="5069.99161632267" transform="scale(0.00019723898492860092,-0.00019723898492860092)" x1="1382384.597614047" x2="1382394.046691417" y1="493148.3121747109" y2="493148.3121747109" /><text font-size="0.0005917169547858028" transform="translate(272.6637970580823,-97.26818312711804)" x="0" y="0">98</text><text font-size="0.00039447796985720183" transform="translate(272.66337782433243,-97.26755610002647)" x="0" y="0">493 ì2</text><line stroke="black" stroke-width="5069.99161632267" transform="scale(0.00019723898492860092,-0.00019723898492860092)" x1="1382400.796083889" x2="1382410.24516126" y1="493148.3121747109" y2="493148.3121747109" /><text font-size="0.0005917169547858028" transform="translate(272.66713725204875,-97.26818312711804)" x="0" y="0">99</text><text font-size="0.00039447796985720183" transform="translate(272.6667180182989,-97.26755610002647)" x="0" y="0">493 ì2</text><line stroke="black" stroke-width="5069.99161632267" transform="scale(0.00019723898492860092,-0.00019723898492860092)" x1="1382417.730839296" x2="1382427.179916666" y1="493148.3121747109" y2="493148.3121747109" /><text font-size="0.0005917169547858028" transform="translate(272.67034439951556,-97.26818312711804)" x="0" y="0">100</text><text font-size="0.00039447796985720183" transform="translate(272.6701550312541,-97.26755610002647)" x="0" y="0">521 ì2</text><line stroke="black" stroke-width="5069.99161632267" transform="scale(0.00019723898492860092,-0.00019723898492860092)" x1="1382435.156466164" x2="1382444.605543534" y1="493148.3121747109" y2="493148.3121747109" /><text font-size="0.0005917169547858028" transform="translate(272.63437678935566,-97.2556546632929)" x="0" y="0">101</text><text font-size="0.00039447796985720183" transform="translate(272.6341874210942,-97.25502763620132)" x="0" y="0">473 ì2</text><line stroke="black" stroke-width="5069.99161632267" transform="scale(0.00019723898492860092,-0.00019723898492860092)" x1="1382252.800984194" x2="1382262.250061564" y1="493084.7929681521" y2="493084.7929681521" /><text font-size="0.0005917169547858028" transform="translate(272.6372813064045,-97.2556546632929)" x="0" y="0">102</text><text font-size="0.00039447796985720183" transform="translate(272.6370919381432,-97.25502763620132)" x="0" y="0">507 ì2</text><line stroke="black" stroke-width="5069.99161632267" transform="scale(0.00019723898492860092,-0.00019723898492860092)" x1="1382267.526861282" x2="1382276.975938651" y1="493084.7929681521" y2="493084.7929681521" /><text font-size="0.0005917169547858028" transform="translate(272.64057309372055,-97.2556546632929)" x="0" y="0">103</text><text font-size="0.00039447796985720183" transform="translate(272.64038372545906,-97.25502763620132)" x="0" y="0">512 ì2</text><line stroke="black" stroke-width="5069.99161632267" transform="scale(0.00019723898492860092,-0.00019723898492860092)" x1="1382284.216195376" x2="1382293.665272746" y1="493084.7929681521" y2="493084.7929681521" /><text font-size="0.0005917169547858028" transform="translate(272.6440101066755,-97.2556546632929)" x="0" y="0">104</text><text font-size="0.00039447796985720183" transform="translate(272.64382073841426,-97.25502763620132)" x="0" y="0">516 ì2</text><line stroke="black" stroke-width="5069.99161632267" transform="scale(0.00019723898492860092,-0.00019723898492860092)" x1="1382301.641822244" x2="1382311.090899614" y1="493084.7929681521" y2="493084.7929681521" /><text font-size="0.0005917169547858028" transform="translate(272.64715666693047,-97.2556546632929)" x="0" y="0">105</text><text font-size="0.00039447796985720183" transform="translate(272.64696729866904,-97.25502763620132)" x="0" y="0">521 ì2</text><line stroke="black" stroke-width="5069.99161632267" transform="scale(0.00019723898492860092,-0.00019723898492860092)" x1="1382317.594856356" x2="1382327.043933726" y1="493084.7929681521" y2="493084.7929681521" /><text font-size="0.0005917169547858028" transform="translate(272.6505452703912,-97.2556546632929)" x="0" y="0">106</text><text font-size="0.00039447796985720183" transform="translate(272.6503559021298,-97.25502763620132)" x="0" y="0">526 ì2</text><line stroke="black" stroke-width="5069.99161632267" transform="scale(0.00019723898492860092,-0.00019723898492860092)" x1="1382334.775047493" x2="1382344.224124864" y1="493084.7929681521" y2="493084.7929681521" /><text font-size="0.0005917169547858028" transform="translate(272.6538370577072,-97.2556546632929)" x="0" y="0">107</text><text font-size="0.00039447796985720183" transform="translate(272.6536476894458,-97.25502763620132)" x="0" y="0">530 ì2</text><line stroke="black" stroke-width="5069.99161632267" transform="scale(0.00019723898492860092,-0.00019723898492860092)" x1="1382351.464381588" x2="1382360.913458958" y1="493084.7929681521" y2="493084.7929681521" /><text font-size="0.0005917169547858028" transform="translate(272.6569352098897,-97.2556546632929)" x="0" y="0">108</text><text font-size="0.00039447796985720183" transform="translate(272.6567458416282,-97.25502763620132)" x="0" y="0">535 ì2</text><line stroke="black" stroke-width="5069.99161632267" transform="scale(0.00019723898492860092,-0.00019723898492860092)" x1="1382367.171987179" x2="1382376.621064549" y1="493084.7929681521" y2="493084.7929681521" /><text font-size="0.0005917169547858028" transform="translate(272.6603722228449,-97.2556546632929)" x="0" y="0">109</text><text font-size="0.00039447796985720183" transform="translate(272.6601828545834,-97.25502763620132)" x="0" y="0">540 ì2</text><line stroke="black" stroke-width="5069.99161632267" transform="scale(0.00019723898492860092,-0.00019723898492860092)" x1="1382384.597614047" x2="1382394.046691417" y1="493084.7929681521" y2="493084.7929681521" /><text font-size="0.0005917169547858028" transform="translate(272.6635671925939,-97.2556546632929)" x="0" y="0">110</text><text font-size="0.00039447796985720183" transform="translate(272.66337782433243,-97.25502763620132)" x="0" y="0">544 ì2</text><line stroke="black" stroke-width="5069.99161632267" transform="scale(0.00019723898492860092,-0.00019723898492860092)" x1="1382400.796083889" x2="1382410.24516126" y1="493084.7929681521" y2="493084.7929681521" /><text font-size="0.0005917169547858028" transform="translate(272.6669073865604,-97.2556546632929)" x="0" y="0">111</text><text font-size="0.00039447796985720183" transform="translate(272.6667180182989,-97.25502763620132)" x="0" y="0">550 ì2</text><line stroke="black" stroke-width="5069.99161632267" transform="scale(0.00019723898492860092,-0.00019723898492860092)" x1="1382417.730839296" x2="1382427.179916666" y1="493084.7929681521" y2="493084.7929681521" /><text font-size="0.0005917169547858028" transform="translate(272.67034439951556,-97.2556546632929)" x="0" y="0">112</text><text font-size="0.00039447796985720183" transform="translate(272.6701550312541,-97.25502763620132)" x="0" y="0">592 ì2</text><line stroke="black" stroke-width="5069.99161632267" transform="scale(0.00019723898492860092,-0.00019723898492860092)" x1="1382435.156466164" x2="1382444.605543534" y1="493084.7929681521" y2="493084.7929681521" /><text font-size="0.0005917169547858028" transform="translate(272.63437678935566,-97.25313870101425)" x="0" y="0">113</text><text font-size="0.00039447796985720183" transform="translate(272.6341874210942,-97.25251167392268)" x="0" y="0">517 ì2</text><line stroke="black" stroke-width="5069.99161632267" transform="scale(0.00019723898492860092,-0.00019723898492860092)" x1="1382252.800984194" x2="1382262.250061564" y1="493072.0370604923" y2="493072.0370604923" /><text font-size="0.0005917169547858028" transform="translate(272.6372813064045,-97.25313870101425)" x="0" y="0">114</text><text font-size="0.00039447796985720183" transform="translate(272.6370919381432,-97.25251167392268)" x="0" y="0">508 ì2</text><line stroke="black" stroke-width="5069.99161632267" transform="scale(0.00019723898492860092,-0.00019723898492860092)" x1="1382267.526861282" x2="1382276.975938651" y1="493072.0370604923" y2="493072.0370604923" /><text font-size="0.0005917169547858028" transform="translate(272.64057309372055,-97.25313870101425)" x="0" y="0">115</text><text font-size="0.00039447796985720183" transform="translate(272.64038372545906,-97.25251167392268)" x="0" y="0">513 ì2</text><line stroke="black" stroke-width="5069.99161632267" transform="scale(0.00019723898492860092,-0.00019723898492860092)" x1="1382284.216195376" x2="1382293.665272746" y1="493072.0370604923" y2="493072.0370604923" /><text font-size="0.0005917169547858028" transform="translate(272.6440101066755,-97.25313870101425)" x="0" y="0">116</text><text font-size="0.00039447796985720183" transform="translate(272.64382073841426,-97.25251167392268)" x="0" y="0">517 ì2</text><line stroke="black" stroke-width="5069.99161632267" transform="scale(0.00019723898492860092,-0.00019723898492860092)" x1="1382301.641822244" x2="1382311.090899614" y1="493072.0370604923" y2="493072.0370604923" /><text font-size="0.0005917169547858028" transform="translate(272.64715666693047,-97.25313870101425)" x="0" y="0">117</text><text font-size="0.00039447796985720183" transform="translate(272.64696729866904,-97.25251167392268)" x="0" y="0">522 ì2</text><line stroke="black" stroke-width="5069.99161632267" transform="scale(0.00019723898492860092,-0.00019723898492860092)" x1="1382317.594856356" x2="1382327.043933726" y1="493072.0370604923" y2="493072.0370604923" /><text font-size="0.0005917169547858028" transform="translate(272.6505452703912,-97.25313870101425)" x="0" y="0">118</text><text font-size="0.00039447796985720183" transform="translate(272.6503559021298,-97.25251167392268)" x="0" y="0">527 ì2</text><line stroke="black" stroke-width="5069.99161632267" transform="scale(0.00019723898492860092,-0.00019723898492860092)" x1="1382334.775047493" x2="1382344.224124864" y1="493072.0370604923" y2="493072.0370604923" /><text font-size="0.0005917169547858028" transform="translate(272.6538370577072,-97.25313870101425)" x="0" y="0">119</text><text font-size="0.00039447796985720183" transform="translate(272.6536476894458,-97.25251167392268)" x="0" y="0">532 ì2</text><line stroke="black" stroke-width="5069.99161632267" transform="scale(0.00019723898492860092,-0.00019723898492860092)" x1="1382351.464381588" x2="1382360.913458958" y1="493072.0370604923" y2="493072.0370604923" /><text font-size="0.0005917169547858028" transform="translate(272.6569352098897,-97.25313870101425)" x="0" y="0">120</text><text font-size="0.00039447796985720183" transform="translate(272.6567458416282,-97.25251167392268)" x="0" y="0">536 ì2</text><line stroke="black" stroke-width="5069.99161632267" transform="scale(0.00019723898492860092,-0.00019723898492860092)" x1="1382367.171987179" x2="1382376.621064549" y1="493072.0370604923" y2="493072.0370604923" /><text font-size="0.0005917169547858028" transform="translate(272.6603722228449,-97.25313870101425)" x="0" y="0">121</text><text font-size="0.00039447796985720183" transform="translate(272.6601828545834,-97.25251167392268)" x="0" y="0">541 ì2</text><line stroke="black" stroke-width="5069.99161632267" transform="scale(0.00019723898492860092,-0.00019723898492860092)" x1="1382384.597614047" x2="1382394.046691417" y1="493072.0370604923" y2="493072.0370604923" /><text font-size="0.0005917169547858028" transform="translate(272.6635671925939,-97.25313870101425)" x="0" y="0">122</text><text font-size="0.00039447796985720183" transform="translate(272.66337782433243,-97.25251167392268)" x="0" y="0">546 ì2</text><line stroke="black" stroke-width="5069.99161632267" transform="scale(0.00019723898492860092,-0.00019723898492860092)" x1="1382400.796083889" x2="1382410.24516126" y1="493072.0370604923" y2="493072.0370604923" /><text font-size="0.0005917169547858028" transform="translate(272.6669073865604,-97.25313870101425)" x="0" y="0">123</text><text font-size="0.00039447796985720183" transform="translate(272.6667180182989,-97.25251167392268)" x="0" y="0">550 ì2</text><line stroke="black" stroke-width="5069.99161632267" transform="scale(0.00019723898492860092,-0.00019723898492860092)" x1="1382417.730839296" x2="1382427.179916666" y1="493072.0370604923" y2="493072.0370604923" /><text font-size="0.0005917169547858028" transform="translate(272.67034439951556,-97.25313870101425)" x="0" y="0">124</text><text font-size="0.00039447796985720183" transform="translate(272.6701550312541,-97.25251167392268)" x="0" y="0">540 ì2</text><line stroke="black" stroke-width="5069.99161632267" transform="scale(0.00019723898492860092,-0.00019723898492860092)" x1="1382435.156466164" x2="1382444.605543534" y1="493072.0370604923" y2="493072.0370604923" /><text font-size="0.0005917169547858028" transform="translate(272.6398183805323,-97.23844592034673)" x="0" y="0">127</text><text font-size="0.00039447796985720183" transform="translate(272.6396290122708,-97.23781889325514)" x="0" y="0">731 ì2</text><line stroke="black" stroke-width="5069.99161632267" transform="scale(0.00019723898492860092,-0.00019723898492860092)" x1="1382280.389805839" x2="1382289.83888321" y1="492997.5447856874" y2="492997.5447856874" /><text font-size="0.0005917169547858028" transform="translate(272.64342041803394,-97.23844592034673)" x="0" y="0">128</text><text font-size="0.00039447796985720183" transform="translate(272.64323104977245,-97.23781889325514)" x="0" y="0">663 ì2</text><line stroke="black" stroke-width="5069.99161632267" transform="scale(0.00019723898492860092,-0.00019723898492860092)" x1="1382298.652105774" x2="1382308.101183144" y1="492997.5447856874" y2="492997.5447856874" /><text font-size="0.0005917169547858028" transform="translate(272.6466451003633,-97.23844592034673)" x="0" y="0">129</text><text font-size="0.00039447796985720183" transform="translate(272.6464557321018,-97.23781889325514)" x="0" y="0">575 ì2</text><line stroke="black" stroke-width="5069.99161632267" transform="scale(0.00019723898492860092,-0.00019723898492860092)" x1="1382315.001218149" x2="1382324.45029552" y1="492997.5447856874" y2="492997.5447856874" /><text font-size="0.0005917169547858028" transform="translate(272.64983547728934,-97.23844592034673)" x="0" y="0">130</text><text font-size="0.00039447796985720183" transform="translate(272.64964610902786,-97.23781889325514)" x="0" y="0">579 ì2</text><line stroke="black" stroke-width="5069.99161632267" transform="scale(0.00019723898492860092,-0.00019723898492860092)" x1="1382331.176402417" x2="1382340.625479787" y1="492997.5447856874" y2="492997.5447856874" /><text font-size="0.0005917169547858028" transform="translate(272.6527171070062,-97.23844592034673)" x="0" y="0">131</text><text font-size="0.00039447796985720183" transform="translate(272.65252773874477,-97.23781889325514)" x="0" y="0">582 ì2</text><line stroke="black" stroke-width="5069.99161632267" transform="scale(0.00019723898492860092,-0.00019723898492860092)" x1="1382345.786240923" x2="1382355.235318293" y1="492997.5447856874" y2="492997.5447856874" /><text font-size="0.0005917169547858028" transform="translate(272.65580456914375,-97.23844592034673)" x="0" y="0">132</text><text font-size="0.00039447796985720183" transform="translate(272.65561520088227,-97.23781889325514)" x="0" y="0">586 ì2</text><line stroke="black" stroke-width="5069.99161632267" transform="scale(0.00019723898492860092,-0.00019723898492860092)" x1="1382361.439648076" x2="1382370.888725446" y1="492997.5447856874" y2="492997.5447856874" /><text font-size="0.0005917169547858028" transform="translate(272.6590635554547,-97.23844592034673)" x="0" y="0">133</text><text font-size="0.00039447796985720183" transform="translate(272.6588741871932,-97.23781889325514)" x="0" y="0">685 ì2</text><line stroke="black" stroke-width="5069.99161632267" transform="scale(0.00019723898492860092,-0.00019723898492860092)" x1="1382377.962681351" x2="1382387.41175872" y1="492997.5447856874" y2="492997.5447856874" /><text font-size="0.0005917169547858028" transform="translate(272.66280281457017,-97.23844592034673)" x="0" y="0">134</text><text font-size="0.00039447796985720183" transform="translate(272.6626134463085,-97.23781889325514)" x="0" y="0">767 ì2</text><line stroke="black" stroke-width="5069.99161632267" transform="scale(0.00019723898492860092,-0.00019723898492860092)" x1="1382396.920693716" x2="1382406.369771087" y1="492997.5447856874" y2="492997.5447856874" /><text font-size="0.0005917169547858028" transform="translate(272.6398183805323,-97.23545425404896)" x="0" y="0">139</text><text font-size="0.00039447796985720183" transform="translate(272.6396290122708,-97.23482722695735)" x="0" y="0">731 ì2</text><line stroke="black" stroke-width="5069.99161632267" transform="scale(0.00019723898492860092,-0.00019723898492860092)" x1="1382280.389805839" x2="1382289.83888321" y1="492982.3770626389" y2="492982.3770626389" /><text font-size="0.0005917169547858028" transform="translate(272.64342041803394,-97.23545425404896)" x="0" y="0">140</text><text font-size="0.00039447796985720183" transform="translate(272.64323104977245,-97.23482722695735)" x="0" y="0">663 ì2</text><line stroke="black" stroke-width="5069.99161632267" transform="scale(0.00019723898492860092,-0.00019723898492860092)" x1="1382298.652105774" x2="1382308.101183144" y1="492982.3770626389" y2="492982.3770626389" /><text font-size="0.0005917169547858028" transform="translate(272.6466451003633,-97.23545425404896)" x="0" y="0">141</text><text font-size="0.00039447796985720183" transform="translate(272.6464557321018,-97.23482722695735)" x="0" y="0">575 ì2</text><line stroke="black" stroke-width="5069.99161632267" transform="scale(0.00019723898492860092,-0.00019723898492860092)" x1="1382315.001218149" x2="1382324.45029552" y1="492982.3770626389" y2="492982.3770626389" /><text font-size="0.0005917169547858028" transform="translate(272.64983547728934,-97.23545425404896)" x="0" y="0">142</text><text font-size="0.00039447796985720183" transform="translate(272.64964610902786,-97.23482722695735)" x="0" y="0">579 ì2</text><line stroke="black" stroke-width="5069.99161632267" transform="scale(0.00019723898492860092,-0.00019723898492860092)" x1="1382331.176402417" x2="1382340.625479787" y1="492982.3770626389" y2="492982.3770626389" /><text font-size="0.0005917169547858028" transform="translate(272.6527171070062,-97.23545425404896)" x="0" y="0">143</text><text font-size="0.00039447796985720183" transform="translate(272.65252773874477,-97.23482722695735)" x="0" y="0">583 ì2</text><line stroke="black" stroke-width="5069.99161632267" transform="scale(0.00019723898492860092,-0.00019723898492860092)" x1="1382345.786240923" x2="1382355.235318293" y1="492982.3770626389" y2="492982.3770626389" /><text font-size="0.0005917169547858028" transform="translate(272.65580456914375,-97.23545425404896)" x="0" y="0">144</text><text font-size="0.00039447796985720183" transform="translate(272.65561520088227,-97.23482722695735)" x="0" y="0">587 ì2</text><line stroke="black" stroke-width="5069.99161632267" transform="scale(0.00019723898492860092,-0.00019723898492860092)" x1="1382361.439648076" x2="1382370.888725446" y1="492982.3770626389" y2="492982.3770626389" /><text font-size="0.0005917169547858028" transform="translate(272.6590635554547,-97.23545425404896)" x="0" y="0">145</text><text font-size="0.00039447796985720183" transform="translate(272.6588741871932,-97.23482722695735)" x="0" y="0">685 ì2</text><line stroke="black" stroke-width="5069.99161632267" transform="scale(0.00019723898492860092,-0.00019723898492860092)" x1="1382377.962681351" x2="1382387.41175872" y1="492982.3770626389" y2="492982.3770626389" /><text font-size="0.0005917169547858028" transform="translate(272.66280281457017,-97.23545425404896)" x="0" y="0">146</text><text font-size="0.00039447796985720183" transform="translate(272.6626134463085,-97.23482722695735)" x="0" y="0">768 ì2</text><line stroke="black" stroke-width="5069.99161632267" transform="scale(0.00019723898492860092,-0.00019723898492860092)" x1="1382396.920693716" x2="1382406.369771087" y1="492982.3770626389" y2="492982.3770626389" /><text font-size="0.0005917169547858028" transform="translate(272.636749965103,-97.23844592034673)" x="0" y="0">126</text><text font-size="0.00039447796985720183" transform="translate(272.6365605968413,-97.23781889325514)" x="0" y="0">571 ì2</text><line stroke="black" stroke-width="5069.99161632267" transform="scale(0.00019723898492860092,-0.00019723898492860092)" x1="1382264.832965336" x2="1382274.282042707" y1="492997.5447856874" y2="492997.5447856874" /><text font-size="0.0005917169547858028" transform="translate(272.636749965103,-97.24247564123468)" x="0" y="0">125</text><text font-size="0.00039447796985720183" transform="translate(272.6365605968413,-97.24184861414308)" x="0" y="0">554 ì2</text><line stroke="black" stroke-width="5069.99161632267" transform="scale(0.00019723898492860092,-0.00019723898492860092)" x1="1382264.832965336" x2="1382274.282042707" y1="493017.9754368055" y2="493017.9754368055" /><text font-size="0.0005917169547858028" transform="translate(272.63644765495593,-97.23533602682544)" x="0" y="0">137</text><text font-size="0.00039447796985720183" transform="translate(272.6362582866945,-97.23470899973384)" x="0" y="0">577 ì2</text><line stroke="black" stroke-width="5069.99161632267" transform="scale(0.00019723898492860092,-0.00019723898492860092)" x1="1382263.300255426" x2="1382272.749332796" y1="492981.7776516069" y2="492981.7776516069" /><text font-size="0.0005917169547858028" transform="translate(272.6362964998825,-97.23172241819314)" x="0" y="0">138</text><text font-size="0.00039447796985720183" transform="translate(272.63610713162103,-97.23109539110156)" x="0" y="0">569 ì2</text><line stroke="black" stroke-width="5069.99161632267" transform="scale(0.00019723898492860092,-0.00019723898492860092)" x1="1382262.533900471" x2="1382271.982977841" y1="492963.4566861365" y2="492963.4566861365" /><text font-size="0.0005917169547858028" transform="translate(272.6662622200269,-97.24247564123468)" x="0" y="0">135</text><text font-size="0.00039447796985720183" transform="translate(272.6660728517654,-97.24184861414308)" x="0" y="0">608 ì2</text><line stroke="black" stroke-width="5069.99161632267" transform="scale(0.00019723898492860092,-0.00019723898492860092)" x1="1382414.45985038" x2="1382423.90892775" y1="493017.9754368055" y2="493017.9754368055" /><text font-size="0.0005917169547858028" transform="translate(272.6662622200269,-97.23857852349494)" x="0" y="0">136</text><text font-size="0.00039447796985720183" transform="translate(272.6660728517654,-97.23795149640335)" x="0" y="0">589 ì2</text><text font-size="0.0005917169547858028" transform="translate(272.6662622200269,-97.23446883565443)" x="0" y="0">147</text><text font-size="0.00039447796985720183" transform="translate(272.6660728517654,-97.23384180856287)" x="0" y="0">584 ì2</text><text font-size="0.0005917169547858028" transform="translate(272.6662622200269,-97.23092600160967)" x="0" y="0">148</text><text font-size="0.00039447796985720183" transform="translate(272.6660728517654,-97.23029897451809)" x="0" y="0">591 ì2</text><text font-size="0.0005917169547858028" transform="translate(272.6391019925345,-97.2197083799612)" x="0" y="0">151</text><text font-size="0.00039447796985720183" transform="translate(272.638912624273,-97.21908135286964)" x="0" y="0">780 ì2</text><line stroke="black" stroke-width="5069.99161632267" transform="scale(0.00019723898492860092,-0.00019723898492860092)" x1="1382276.757724696" x2="1382286.206802066" y1="492902.5456130223" y2="492902.5456130223" /><text font-size="0.0005917169547858028" transform="translate(272.64266189123845,-97.2197083799612)" x="0" y="0">152</text><text font-size="0.00039447796985720183" transform="translate(272.64247252297696,-97.21908135286964)" x="0" y="0">702 ì2</text><line stroke="black" stroke-width="5069.99161632267" transform="scale(0.00019723898492860092,-0.00019723898492860092)" x1="1382294.80638128" x2="1382304.25545865" y1="492902.5456130223" y2="492902.5456130223" /><text font-size="0.0005917169547858028" transform="translate(272.64603918895995,-97.2197083799612)" x="0" y="0">153</text><text font-size="0.00039447796985720183" transform="translate(272.6458498206985,-97.21908135286964)" x="0" y="0">604 ì2</text><line stroke="black" stroke-width="5069.99161632267" transform="scale(0.00019723898492860092,-0.00019723898492860092)" x1="1382311.929252414" x2="1382321.378329784" y1="492902.5456130223" y2="492902.5456130223" /><text font-size="0.0005917169547858028" transform="translate(272.649229565886,-97.2197083799612)" x="0" y="0">154</text><text font-size="0.00039447796985720183" transform="translate(272.6490401976246,-97.21908135286964)" x="0" y="0">604 ì2</text><line stroke="black" stroke-width="5069.99161632267" transform="scale(0.00019723898492860092,-0.00019723898492860092)" x1="1382328.104436682" x2="1382337.553514052" y1="492902.5456130223" y2="492902.5456130223" /><text font-size="0.0005917169547858028" transform="translate(272.65213092199195,-97.2197083799612)" x="0" y="0">155</text><text font-size="0.00039447796985720183" transform="translate(272.65194155373047,-97.21908135286964)" x="0" y="0">604 ì2</text><line stroke="black" stroke-width="5069.99161632267" transform="scale(0.00019723898492860092,-0.00019723898492860092)" x1="1382342.814287815" x2="1382352.263365185" y1="492902.5456130223" y2="492902.5456130223" /><text font-size="0.0005917169547858028" transform="translate(272.65521838412945,-97.2197083799612)" x="0" y="0">156</text><text font-size="0.00039447796985720183" transform="translate(272.655029015868,-97.21908135286964)" x="0" y="0">604 ì2</text><line stroke="black" stroke-width="5069.99161632267" transform="scale(0.00019723898492860092,-0.00019723898492860092)" x1="1382358.467694968" x2="1382367.916772338" y1="492902.5456130223" y2="492902.5456130223" /><text font-size="0.0005917169547858028" transform="translate(272.6584773704404,-97.2197083799612)" x="0" y="0">157</text><text font-size="0.00039447796985720183" transform="translate(272.6587072359288,-97.21908135286964)" x="0" y="0">702</text><line stroke="black" stroke-width="5069.99161632267" transform="scale(0.00019723898492860092,-0.00019723898492860092)" x1="1382374.990728242" x2="1382384.439805612" y1="492902.5456130223" y2="492902.5456130223" /><text font-size="0.0005917169547858028" transform="translate(272.6620124792743,-97.2197083799612)" x="0" y="0">158</text><text font-size="0.00039447796985720183" transform="translate(272.66182311101284,-97.21908135286964)" x="0" y="0">780 ì2</text><line stroke="black" stroke-width="5069.99161632267" transform="scale(0.00019723898492860092,-0.00019723898492860092)" x1="1382392.913700393" x2="1382402.362777763" y1="492902.5456130223" y2="492902.5456130223" /><text font-size="0.0005917169547858028" transform="translate(272.6391019925345,-97.21635809116287)" x="0" y="0">163</text><text font-size="0.00039447796985720183" transform="translate(272.638912624273,-97.2157310640713)" x="0" y="0">780 ì2</text><line stroke="black" stroke-width="5069.99161632267" transform="scale(0.00019723898492860092,-0.00019723898492860092)" x1="1382276.757724696" x2="1382286.206802066" y1="492885.5596769026" y2="492885.5596769026" /><text font-size="0.0005917169547858028" transform="translate(272.64266189123845,-97.21635809116287)" x="0" y="0">164</text><text font-size="0.00039447796985720183" transform="translate(272.64247252297696,-97.2157310640713)" x="0" y="0">702 ì2</text><line stroke="black" stroke-width="5069.99161632267" transform="scale(0.00019723898492860092,-0.00019723898492860092)" x1="1382294.80638128" x2="1382304.25545865" y1="492885.5596769026" y2="492885.5596769026" /><text font-size="0.0005917169547858028" transform="translate(272.64603918895995,-97.21635809116287)" x="0" y="0">165</text><text font-size="0.00039447796985720183" transform="translate(272.6458498206985,-97.2157310640713)" x="0" y="0">604 ì2</text><line stroke="black" stroke-width="5069.99161632267" transform="scale(0.00019723898492860092,-0.00019723898492860092)" x1="1382311.929252414" x2="1382321.378329784" y1="492885.5596769026" y2="492885.5596769026" /><text font-size="0.0005917169547858028" transform="translate(272.649229565886,-97.21635809116287)" x="0" y="0">166</text><text font-size="0.00039447796985720183" transform="translate(272.6490401976246,-97.2157310640713)" x="0" y="0">604 ì2</text><line stroke="black" stroke-width="5069.99161632267" transform="scale(0.00019723898492860092,-0.00019723898492860092)" x1="1382328.104436682" x2="1382337.553514052" y1="492885.5596769026" y2="492885.5596769026" /><text font-size="0.0005917169547858028" transform="translate(272.65213092199195,-97.21635809116287)" x="0" y="0">167</text><text font-size="0.00039447796985720183" transform="translate(272.65194155373047,-97.2157310640713)" x="0" y="0">604 ì2</text><line stroke="black" stroke-width="5069.99161632267" transform="scale(0.00019723898492860092,-0.00019723898492860092)" x1="1382342.814287815" x2="1382352.263365185" y1="492885.5596769026" y2="492885.5596769026" /><text font-size="0.0005917169547858028" transform="translate(272.65521838412945,-97.21635809116287)" x="0" y="0">168</text><text font-size="0.00039447796985720183" transform="translate(272.655029015868,-97.2157310640713)" x="0" y="0">604 ì2</text><line stroke="black" stroke-width="5069.99161632267" transform="scale(0.00019723898492860092,-0.00019723898492860092)" x1="1382358.467694968" x2="1382367.916772338" y1="492885.5596769026" y2="492885.5596769026" /><text font-size="0.0005917169547858028" transform="translate(272.6584773704404,-97.21635809116287)" x="0" y="0">169</text><text font-size="0.00039447796985720183" transform="translate(272.65828800217895,-97.2157310640713)" x="0" y="0">702 ì2</text><line stroke="black" stroke-width="5069.99161632267" transform="scale(0.00019723898492860092,-0.00019723898492860092)" x1="1382374.990728242" x2="1382384.439805612" y1="492885.5596769026" y2="492885.5596769026" /><text font-size="0.0005917169547858028" transform="translate(272.6620124792743,-97.21635809116287)" x="0" y="0">170</text><text font-size="0.00039447796985720183" transform="translate(272.66182311101284,-97.2157310640713)" x="0" y="0">780 ì2</text><line stroke="black" stroke-width="5069.99161632267" transform="scale(0.00019723898492860092,-0.00019723898492860092)" x1="1382392.913700393" x2="1382402.362777763" y1="492885.5596769026" y2="492885.5596769026" /><text font-size="0.0005917169547858028" transform="translate(272.6354890915129,-97.22051266948985)" x="0" y="0">150</text><text font-size="0.00039447796985720183" transform="translate(272.6352997232514,-97.21988564239827)" x="0" y="0">617 ì2</text><line stroke="black" stroke-width="5069.99161632267" transform="scale(0.00019723898492860092,-0.00019723898492860092)" x1="1382258.440346806" x2="1382267.889424176" y1="492906.6233541897" y2="492906.6233541897" /><text font-size="0.0005917169547858028" transform="translate(272.6354890915129,-97.22446100233276)" x="0" y="0">149</text><text font-size="0.00039447796985720183" transform="translate(272.6352997232514,-97.22383397524116)" x="0" y="0">617 ì2</text><line stroke="black" stroke-width="5069.99161632267" transform="scale(0.00019723898492860092,-0.00019723898492860092)" x1="1382258.440346806" x2="1382267.889424176" y1="492926.6413686017" y2="492926.6413686017" /><text font-size="0.0005917169547858028" transform="translate(272.6354890915129,-97.21660089637106)" x="0" y="0">161</text><text font-size="0.00039447796985720183" transform="translate(272.6352997232514,-97.21597386927944)" x="0" y="0">618 ì2</text><line stroke="black" stroke-width="5069.99161632267" transform="scale(0.00019723898492860092,-0.00019723898492860092)" x1="1382258.440346806" x2="1382267.889424176" y1="492886.7906972723" y2="492886.7906972723" /><text font-size="0.0005917169547858028" transform="translate(272.6354890915129,-97.21309126743556)" x="0" y="0">162</text><text font-size="0.00039447796985720183" transform="translate(272.6352997232514,-97.21246424034396)" x="0" y="0">618 ì2</text><line stroke="black" stroke-width="5069.99161632267" transform="scale(0.00019723898492860092,-0.00019723898492860092)" x1="1382258.440346806" x2="1382267.889424176" y1="492868.9969079931" y2="492868.9969079931" /><text font-size="0.0005917169547858028" transform="translate(272.66557251732706,-97.21930496980876)" x="0" y="0">160</text><text font-size="0.00039447796985720183" transform="translate(272.66538314906575,-97.21867794271716)" x="0" y="0">591 ì2</text><line stroke="black" stroke-width="5069.99161632267" transform="scale(0.00019723898492860092,-0.00019723898492860092)" x1="1382410.963063475" x2="1382420.412140844" y1="492900.5003269315" y2="492900.5003269315" /><text font-size="0.0005917169547858028" transform="translate(272.66557251732706,-97.22311902684393)" x="0" y="0">159</text><text font-size="0.00039447796985720183" transform="translate(272.66538314906575,-97.22249199975232)" x="0" y="0">591 ì2</text><line stroke="black" stroke-width="5069.99161632267" transform="scale(0.00019723898492860092,-0.00019723898492860092)" x1="1382410.963063475" x2="1382420.412140844" y1="492919.837564124" y2="492919.837564124" /><text font-size="0.0005917169547858028" transform="translate(272.6653197997176,-97.21549091277357)" x="0" y="0">171</text><text font-size="0.00039447796985720183" transform="translate(272.6651304314562,-97.21486388568199)" x="0" y="0">591 ì2</text><line stroke="black" stroke-width="5069.99161632267" transform="scale(0.00019723898492860092,-0.00019723898492860092)" x1="1382409.681787313" x2="1382419.130864683" y1="492881.1630897389" y2="492881.1630897389" /><text font-size="0.0005917169547858028" transform="translate(272.6653197997176,-97.21171352933582)" x="0" y="0">172</text><text font-size="0.00039447796985720183" transform="translate(272.6651304314562,-97.21108650224421)" x="0" y="0">591 ì2</text><line stroke="black" stroke-width="5069.99161632267" transform="scale(0.00019723898492860092,-0.00019723898492860092)" x1="1382409.681787313" x2="1382419.130864683" y1="492862.0117873778" y2="492862.0117873778" /><text font-size="0.0005917169547858028" transform="translate(272.6849312174551,-97.26927345362544)" x="0" y="0">173</text><text font-size="0.00039447796985720183" transform="translate(272.6847418491934,-97.26864642653388)" x="0" y="0">718 ì2</text><line stroke="black" stroke-width="5069.99161632267" transform="scale(0.00019723898492860092,-0.00019723898492860092)" x1="1382509.111510825" x2="1382518.560588195" y1="493153.8401209625" y2="493153.8401209625" /><text font-size="0.0005917169547858028" transform="translate(272.7014766441479,-97.26927345362544)" x="0" y="0">175</text><text font-size="0.00039447796985720183" transform="translate(272.7012872758864,-97.26864642653388)" x="0" y="0">892 ì2</text><line stroke="black" stroke-width="5069.99161632267" transform="scale(0.00019723898492860092,-0.00019723898492860092)" x1="1382592.996685447" x2="1382602.445762817" y1="493153.8401209625" y2="493153.8401209625" /><text font-size="0.0005917169547858028" transform="translate(272.70783794177686,-97.26927345362544)" x="0" y="0">176</text><text font-size="0.00039447796985720183" transform="translate(272.7076485735154,-97.26864642653388)" x="0" y="0">876 ì2</text><line stroke="black" stroke-width="5069.99161632267" transform="scale(0.00019723898492860092,-0.00019723898492860092)" x1="1382625.248411095" x2="1382634.697488465" y1="493153.8401209625" y2="493153.8401209625" /><text font-size="0.0005917169547858028" transform="translate(272.7144423447911,-97.26927345362544)" x="0" y="0">177</text><text font-size="0.00039447796985720183" transform="translate(272.7142529765295,-97.26864642653388)" x="0" y="0">950 ì2</text><line stroke="black" stroke-width="5069.99161632267" transform="scale(0.00019723898492860092,-0.00019723898492860092)" x1="1382658.732679007" x2="1382668.181756377" y1="493153.8401209625" y2="493153.8401209625" /><text font-size="0.0005917169547858028" transform="translate(272.6782425610183,-97.25597295372538)" x="0" y="0">178</text><text font-size="0.00039447796985720183" transform="translate(272.6780531927568,-97.25534592663381)" x="0" y="0">976 ì2</text><line stroke="black" stroke-width="5069.99161632267" transform="scale(0.00019723898492860092,-0.00019723898492860092)" x1="1382475.200078767" x2="1382484.649156137" y1="493086.4066979763" y2="493086.4066979763" /><text font-size="0.0005917169547858028" transform="translate(272.683188607898,-97.25597295372538)" x="0" y="0">179</text><text font-size="0.00039447796985720183" transform="translate(272.6829992396365,-97.25534592663381)" x="0" y="0">976 ì2</text><line stroke="black" stroke-width="5069.99161632267" transform="scale(0.00019723898492860092,-0.00019723898492860092)" x1="1382500.276494981" x2="1382509.725572351" y1="493086.4066979763" y2="493086.4066979763" /><text font-size="0.0005917169547858028" transform="translate(272.6880808931511,-97.25597295372538)" x="0" y="0">180</text><text font-size="0.00039447796985720183" transform="translate(272.6878915248896,-97.25534592663381)" x="0" y="0">976 ì2</text><line stroke="black" stroke-width="5069.99161632267" transform="scale(0.00019723898492860092,-0.00019723898492860092)" x1="1382525.080340199" x2="1382534.529417569" y1="493086.4066979763" y2="493086.4066979763" /><text font-size="0.0005917169547858028" transform="translate(272.6929731798263,-97.25597295372538)" x="0" y="0">181</text><text font-size="0.00039447796985720183" transform="translate(272.6927838115648,-97.25534592663381)" x="0" y="0">976 ì2</text><line stroke="black" stroke-width="5069.99161632267" transform="scale(0.00019723898492860092,-0.00019723898492860092)" x1="1382549.884192627" x2="1382559.333269997" y1="493086.4066979763" y2="493086.4066979763" /><text font-size="0.0005917169547858028" transform="translate(272.6979461068083,-97.25597295372538)" x="0" y="0">182</text><text font-size="0.00039447796985720183" transform="translate(272.6977567385468,-97.25534592663381)" x="0" y="0">975 ì2</text><line stroke="black" stroke-width="5069.99161632267" transform="scale(0.00019723898492860092,-0.00019723898492860092)" x1="1382575.096890734" x2="1382584.545968104" y1="493086.4066979763" y2="493086.4066979763" /><text font-size="0.0005917169547858028" transform="translate(272.70286527358553,-97.25597295372538)" x="0" y="0">183</text><text font-size="0.00039447796985720183" transform="translate(272.70267590532404,-97.25534592663381)" x="0" y="0">975 ì2</text><line stroke="black" stroke-width="5069.99161632267" transform="scale(0.00019723898492860092,-0.00019723898492860092)" x1="1382600.037025054" x2="1382609.486102424" y1="493086.4066979763" y2="493086.4066979763" /><text font-size="0.0005917169547858028" transform="translate(272.707784440363,-97.25597295372538)" x="0" y="0">184</text><text font-size="0.00039447796985720183" transform="translate(272.7075950721015,-97.25534592663381)" x="0" y="0">975 ì2</text><line stroke="black" stroke-width="5069.99161632267" transform="scale(0.00019723898492860092,-0.00019723898492860092)" x1="1382624.977159375" x2="1382634.426236745" y1="493086.4066979763" y2="493086.4066979763" /><text font-size="0.0005917169547858028" transform="translate(272.6782425610183,-97.25262718558137)" x="0" y="0">187</text><text font-size="0.00039447796985720183" transform="translate(272.6780531927568,-97.25200015848978)" x="0" y="0">975 ì2</text><line stroke="black" stroke-width="5069.99161632267" transform="scale(0.00019723898492860092,-0.00019723898492860092)" x1="1382475.200078767" x2="1382484.649156137" y1="493069.4436815359" y2="493069.4436815359" /><text font-size="0.0005917169547858028" transform="translate(272.683188607898,-97.25262718558137)" x="0" y="0">188</text><text font-size="0.00039447796985720183" transform="translate(272.6829992396365,-97.25200015848978)" x="0" y="0">975 ì2</text><line stroke="black" stroke-width="5069.99161632267" transform="scale(0.00019723898492860092,-0.00019723898492860092)" x1="1382500.276494981" x2="1382509.725572351" y1="493069.4436815359" y2="493069.4436815359" /><text font-size="0.0005917169547858028" transform="translate(272.6880808931511,-97.25262718558137)" x="0" y="0">189</text><text font-size="0.00039447796985720183" transform="translate(272.6878915248896,-97.25200015848978)" x="0" y="0">975 ì2</text><line stroke="black" stroke-width="5069.99161632267" transform="scale(0.00019723898492860092,-0.00019723898492860092)" x1="1382525.080340199" x2="1382534.529417569" y1="493069.4436815359" y2="493069.4436815359" /><text font-size="0.0005917169547858028" transform="translate(272.6929731798263,-97.25262718558137)" x="0" y="0">190</text><text font-size="0.00039447796985720183" transform="translate(272.6927838115648,-97.25200015848978)" x="0" y="0">975 ì2</text><line stroke="black" stroke-width="5069.99161632267" transform="scale(0.00019723898492860092,-0.00019723898492860092)" x1="1382549.884192627" x2="1382559.333269997" y1="493069.4436815359" y2="493069.4436815359" /><text font-size="0.0005917169547858028" transform="translate(272.6979461068083,-97.25262718558137)" x="0" y="0">191</text><text font-size="0.00039447796985720183" transform="translate(272.6977567385468,-97.25200015848978)" x="0" y="0">976 ì2</text><line stroke="black" stroke-width="5069.99161632267" transform="scale(0.00019723898492860092,-0.00019723898492860092)" x1="1382575.096890734" x2="1382584.545968104" y1="493069.4436815359" y2="493069.4436815359" /><text font-size="0.0005917169547858028" transform="translate(272.70286527358553,-97.25262718558137)" x="0" y="0">192</text><text font-size="0.00039447796985720183" transform="translate(272.70267590532404,-97.25200015848978)" x="0" y="0">977 ì2</text><line stroke="black" stroke-width="5069.99161632267" transform="scale(0.00019723898492860092,-0.00019723898492860092)" x1="1382600.037025054" x2="1382609.486102424" y1="493069.4436815359" y2="493069.4436815359" /><text font-size="0.0005917169547858028" transform="translate(272.707784440363,-97.25262718558137)" x="0" y="0">193</text><text font-size="0.00039447796985720183" transform="translate(272.7075950721015,-97.25200015848978)" x="0" y="0">976 ì2</text><line stroke="black" stroke-width="5069.99161632267" transform="scale(0.00019723898492860092,-0.00019723898492860092)" x1="1382624.977159375" x2="1382634.426236745" y1="493069.4436815359" y2="493069.4436815359" /><text font-size="0.0005917169547858028" transform="translate(272.71266788123205,-97.25597295372538)" x="0" y="0">186</text><text font-size="0.00039447796985720183" transform="translate(272.71247851297056,-97.25534592663381)" x="0" y="0">487 ì2</text><line stroke="black" stroke-width="5069.99161632267" transform="scale(0.00019723898492860092,-0.00019723898492860092)" x1="1382649.73616364" x2="1382659.18524101" y1="493086.4066979763" y2="493086.4066979763" /><text font-size="0.0005917169547858028" transform="translate(272.71266788123205,-97.25948198192106)" x="0" y="0">185</text><text font-size="0.00039447796985720183" transform="translate(272.71247851297056,-97.25885495482949)" x="0" y="0">487 ì2</text><line stroke="black" stroke-width="5069.99161632267" transform="scale(0.00019723898492860092,-0.00019723898492860092)" x1="1382649.73616364" x2="1382659.18524101" y1="493104.1974415098" y2="493104.1974415098" /><text font-size="0.0005917169547858028" transform="translate(272.71266788123205,-97.25188822563678)" x="0" y="0">194</text><text font-size="0.00039447796985720183" transform="translate(272.71247851297056,-97.25126119854518)" x="0" y="0">488 ì2</text><line stroke="black" stroke-width="5069.99161632267" transform="scale(0.00019723898492860092,-0.00019723898492860092)" x1="1382649.73616364" x2="1382659.18524101" y1="493065.697160812" y2="493065.697160812" /><text font-size="0.0005917169547858028" transform="translate(272.71266788123205,-97.24794056906191)" x="0" y="0">195</text><text font-size="0.00039447796985720183" transform="translate(272.71247851297056,-97.24731354197031)" x="0" y="0">488 ì2</text><line stroke="black" stroke-width="5069.99161632267" transform="scale(0.00019723898492860092,-0.00019723898492860092)" x1="1382649.73616364" x2="1382659.18524101" y1="493045.6825750733" y2="493045.6825750733" /><text font-size="0.0005917169547858028" transform="translate(272.6921631664871,-97.23848284550084)" x="0" y="0">199</text><text font-size="0.00039447796985720183" transform="translate(272.6919737982256,-97.23785581840927)" x="0" y="0">975 ì2</text><line stroke="black" stroke-width="5069.99161632267" transform="scale(0.00019723898492860092,-0.00019723898492860092)" x1="1382545.777431788" x2="1382555.226509158" y1="492997.7319959093" y2="492997.7319959093" /><line stroke="black" stroke-width="5069.99161632267" transform="scale(0.00019723898492860092,-0.00019723898492860092)" x1="1382414.45985038" x2="1382423.90892775" y1="492998.0642856563" y2="492998.0642856563" /><line stroke="black" stroke-width="5069.99161632267" transform="scale(0.00019723898492860092,-0.00019723898492860092)" x1="1382414.45985038" x2="1382423.90892775" y1="492977.3751437959" y2="492977.3751437959" /><line stroke="black" stroke-width="5069.99161632267" transform="scale(0.00019723898492860092,-0.00019723898492860092)" x1="1382414.45985038" x2="1382423.90892775" y1="492959.3547439556" y2="492959.3547439556" /><text font-size="0.0005917169547858028" transform="translate(272.5856563002425,-97.26184933305419)" x="0" y="0">1</text><text font-size="0.0005917169547858028" transform="translate(272.59054106325516,-97.26184933305419)" x="0" y="0">2</text><text font-size="0.0005917169547858028" transform="translate(272.59441630762575,-97.26184933305419)" x="0" y="0">3</text><text font-size="0.0005917169547858028" transform="translate(272.5981287282531,-97.26184933305419)" x="0" y="0">4</text><text font-size="0.0005917169547858028" transform="translate(272.6022970586811,-97.26184933305419)" x="0" y="0">5</text><text font-size="0.0005917169547858028" transform="translate(272.6061071737388,-97.26184933305419)" x="0" y="0">6</text><text font-size="0.0005917169547858028" transform="translate(272.61014524461865,-97.26184933305419)" x="0" y="0">7</text><text font-size="0.0005917169547858028" transform="translate(272.61402048991135,-97.26184933305419)" x="0" y="0">8</text><text font-size="0.0005917169547858028" transform="translate(272.6180911249871,-97.26184933305419)" x="0" y="0">9</text><text font-size="0.0005917169547858028" transform="translate(272.62434171142417,-97.26419193155186)" x="0" y="0">10</text><text font-size="0.0005917169547858028" transform="translate(272.62434171142417,-97.26018945863973)" x="0" y="0">11</text><text font-size="0.0005917169547858028" transform="translate(272.58542643475425,-97.25718873984171)" x="0" y="0">12</text><text font-size="0.0005917169547858028" transform="translate(272.5896665483966,-97.25718873984171)" x="0" y="0">13</text><text font-size="0.0005917169547858028" transform="translate(272.5941023606841,-97.25718873984171)" x="0" y="0">14</text><text font-size="0.0005917169547858028" transform="translate(272.59791846305455,-97.25718873984171)" x="0" y="0">15</text><text font-size="0.0005917169547858028" transform="translate(272.6019302631478,-97.25718873984171)" x="0" y="0">16</text><text font-size="0.0005917169547858028" transform="translate(272.6057137487701,-97.25718873984171)" x="0" y="0">17</text><text font-size="0.0005917169547858028" transform="translate(272.60959508371485,-97.25718873984171)" x="0" y="0">18</text><text font-size="0.0005917169547858028" transform="translate(272.613769965705,-97.25718873984171)" x="0" y="0">19</text><text font-size="0.0005917169547858028" transform="translate(272.6176839164758,-97.25718873984171)" x="0" y="0">20</text><text font-size="0.0005917169547858028" transform="translate(272.6243050176978,-97.25718873984171)" x="0" y="0">21</text><text font-size="0.0005917169547858028" transform="translate(272.6243050176978,-97.25298442830844)" x="0" y="0">22</text><text font-size="0.0005917169547858028" transform="translate(272.58542643475425,-97.24542807544044)" x="0" y="0">23</text><text font-size="0.0005917169547858028" transform="translate(272.58990634607994,-97.24542807544044)" x="0" y="0">24</text><text font-size="0.0005917169547858028" transform="translate(272.594087597081,-97.24542807544044)" x="0" y="0">25</text><text font-size="0.0005917169547858028" transform="translate(272.59856750932875,-97.24542807544044)" x="0" y="0">26</text><text font-size="0.0005917169547858028" transform="translate(272.60304742065443,-97.24542807544044)" x="0" y="0">27</text><text font-size="0.0005917169547858028" transform="translate(272.58542643475425,-97.24283350635727)" x="0" y="0">28</text><text font-size="0.0005917169547858028" transform="translate(272.58990634607994,-97.24283350635727)" x="0" y="0">29</text><text font-size="0.0005917169547858028" transform="translate(272.594087597081,-97.24283350635727)" x="0" y="0">30</text><text font-size="0.0005917169547858028" transform="translate(272.59856750932875,-97.24283350635727)" x="0" y="0">31</text><text font-size="0.0005917169547858028" transform="translate(272.60304742065443,-97.24283350635727)" x="0" y="0">32</text><text font-size="0.0005917169547858028" transform="translate(272.5857615145567,-97.23705910149906)" x="0" y="0">33</text><text font-size="0.0005917169547858028" transform="translate(272.59036035342217,-97.23705910149906)" x="0" y="0">34</text><text font-size="0.0005917169547858028" transform="translate(272.5947083465651,-97.23705910149906)" x="0" y="0">35</text><text font-size="0.0005917169547858028" transform="translate(272.59926537842495,-97.23705910149906)" x="0" y="0">36</text><text font-size="0.0005917169547858028" transform="translate(272.60396873618794,-97.23705910149906)" x="0" y="0">37</text><text font-size="0.0005917169547858028" transform="translate(272.5857615145567,-97.234343663677)" x="0" y="0">38</text><text font-size="0.0005917169547858028" transform="translate(272.59036035342217,-97.234343663677)" x="0" y="0">39</text><text font-size="0.0005917169547858028" transform="translate(272.5947083465651,-97.234343663677)" x="0" y="0">40</text><text font-size="0.0005917169547858028" transform="translate(272.59926537842495,-97.234343663677)" x="0" y="0">41</text><text font-size="0.0005917169547858028" transform="translate(272.60396873618794,-97.234343663677)" x="0" y="0">42</text><text font-size="0.0005917169547858028" transform="translate(272.58695773470083,-97.22592574824519)" x="0" y="0">58</text><text font-size="0.0005917169547858028" transform="translate(272.592099836914,-97.22592574824519)" x="0" y="0">59</text><text font-size="0.0005917169547858028" transform="translate(272.5973513454197,-97.22592574824519)" x="0" y="0">60</text><text font-size="0.0005917169547858028" transform="translate(272.602821667433,-97.22592574824519)" x="0" y="0">61</text><text font-size="0.0005917169547858028" transform="translate(272.58695773470083,-97.22281002612982)" x="0" y="0">62</text><text font-size="0.0005917169547858028" transform="translate(272.592099836914,-97.22281002612982)" x="0" y="0">63</text><text font-size="0.0005917169547858028" transform="translate(272.5973513454197,-97.22281002612982)" x="0" y="0">64</text><text font-size="0.0005917169547858028" transform="translate(272.602821667433,-97.22281002612982)" x="0" y="0">65</text><text font-size="0.0005917169547858028" transform="translate(272.58695773470083,-97.21793748213166)" x="0" y="0">66</text><text font-size="0.0005917169547858028" transform="translate(272.592099836914,-97.21793748213166)" x="0" y="0">67</text><text font-size="0.0005917169547858028" transform="translate(272.59707287637127,-97.21793748213166)" x="0" y="0">68</text><text font-size="0.0005917169547858028" transform="translate(272.60167036454186,-97.21793748213166)" x="0" y="0">69</text><text font-size="0.0005917169547858028" transform="translate(272.58695773470083,-97.2142933216233)" x="0" y="0">70</text><text font-size="0.0005917169547858028" transform="translate(272.592099836914,-97.2142933216233)" x="0" y="0">71</text><text font-size="0.0005917169547858028" transform="translate(272.59707287637127,-97.2142933216233)" x="0" y="0">72</text><text font-size="0.0005917169547858028" transform="translate(272.60167036454186,-97.2142933216233)" x="0" y="0">73</text><text font-size="0.0005917169547858028" transform="translate(272.6914117295954,-97.26927345362544)" x="0" y="0">174</text><text font-size="0.0005917169547858028" transform="translate(272.6774271178906,-97.23848284550084)" x="0" y="0">196</text><text font-size="0.0005917169547858028" transform="translate(272.68245892410397,-97.23848284550084)" x="0" y="0">197</text><text font-size="0.0005917169547858028" transform="translate(272.68709497023656,-97.23848284550084)" x="0" y="0">198</text><text font-size="0.0005917169547858028" transform="translate(272.69698897133185,-97.23848284550084)" x="0" y="0">200</text><text font-size="0.0005917169547858028" transform="translate(272.7021338514589,-97.23848284550084)" x="0" y="0">201</text><text font-size="0.0005917169547858028" transform="translate(272.706882971505,-97.23848284550084)" x="0" y="0">202</text><text font-size="0.0005917169547858028" transform="translate(272.71191477771845,-97.23848284550084)" x="0" y="0">203</text><text font-size="0.0005917169547858028" transform="translate(272.6921631664871,-97.23151218491427)" x="0" y="0">207</text><text font-size="0.0005917169547858028" transform="translate(272.6774271178906,-97.23151218491427)" x="0" y="0">204</text><text font-size="0.0005917169547858028" transform="translate(272.68245892410397,-97.23151218491427)" x="0" y="0">205</text><text font-size="0.0005917169547858028" transform="translate(272.68709497023656,-97.23151218491427)" x="0" y="0">206</text><text font-size="0.0005917169547858028" transform="translate(272.69698897133185,-97.23151218491427)" x="0" y="0">208</text><text font-size="0.0005917169547858028" transform="translate(272.7021338514589,-97.23151218491427)" x="0" y="0">209</text><text font-size="0.0005917169547858028" transform="translate(272.706882971505,-97.23151218491427)" x="0" y="0">210</text><text font-size="0.0005917169547858028" transform="translate(272.71191477771845,-97.23151218491427)" x="0" y="0">211</text><text font-size="0.0005917169547858028" transform="translate(272.69136963313997,-97.21946013092146)" x="0" y="0">215</text><text font-size="0.0005917169547858028" transform="translate(272.6767642140017,-97.21946013092146)" x="0" y="0">212</text><text font-size="0.0005917169547858028" transform="translate(272.68142212331816,-97.21946013092146)" x="0" y="0">213</text><text font-size="0.0005917169547858028" transform="translate(272.6865032257492,-97.21946013092146)" x="0" y="0">214</text><text font-size="0.0005917169547858028" transform="translate(272.69645073557086,-97.21946013092146)" x="0" y="0">216</text><text font-size="0.0005917169547858028" transform="translate(272.7013171429616,-97.21946013092146)" x="0" y="0">217</text><text font-size="0.0005917169547858028" transform="translate(272.7061601614708,-97.21946013092146)" x="0" y="0">218</text><text font-size="0.0005917169547858028" transform="translate(272.71097839395884,-97.21946013092146)" x="0" y="0">219</text><text font-size="0.0005917169547858028" transform="translate(272.69136963313997,-97.21219465118457)" x="0" y="0">223</text><text font-size="0.0005917169547858028" transform="translate(272.6767642140017,-97.21219465118457)" x="0" y="0">220</text><text font-size="0.0005917169547858028" transform="translate(272.68142212331816,-97.21219465118457)" x="0" y="0">221</text><text font-size="0.0005917169547858028" transform="translate(272.6865032257492,-97.21219465118457)" x="0" y="0">222</text><text font-size="0.0005917169547858028" transform="translate(272.69645073557086,-97.21219465118457)" x="0" y="0">224</text><text font-size="0.0005917169547858028" transform="translate(272.7013171429616,-97.21219465118457)" x="0" y="0">225</text><text font-size="0.0005917169547858028" transform="translate(272.7061601614708,-97.21219465118457)" x="0" y="0">226</text><text font-size="0.0005917169547858028" transform="translate(272.71097839395884,-97.21219465118457)" x="0" y="0">227</text><line stroke="black" stroke-width="5069.99161632267" transform="scale(0.00019723898492860092,-0.00019723898492860092)" x1="1382239.835" x2="1382227.08" y1="493162.1318331044" y2="492860.285" /><line stroke="black" stroke-width="5069.99161632267" transform="scale(0.00019723898492860092,-0.00019723898492860092)" x1="1382460.627166128" x2="1382446.86477576" y1="493166.5601576702" y2="492850.7152279593" /><line stroke="black" stroke-width="5069.99161632267" transform="scale(0.00019723898492860092,-0.00019723898492860092)" x1="1382454.909980616" x2="1382673.684648179" y1="493035.3515516284" y2="493025.4701463471" /><line stroke="black" stroke-width="5069.99161632267" transform="scale(0.00019723898492860092,-0.00019723898492860092)" x1="1382454.909980616" x2="1382234.828232774" y1="493035.3515516284" y2="493038.1784713203" /><line stroke="black" stroke-width="5069.99161632267" transform="scale(0.00019723898492860092,-0.00019723898492860092)" x1="1382230.887273816" x2="1382450.673507468" y1="492947.6970816004" y2="492938.1250867575" /><line stroke="black" stroke-width="5069.99161632267" transform="scale(0.00019723898492860092,-0.00019723898492860092)" x1="1382450.673507468" x2="1382669.466568529" y1="492938.1250867575" y2="492928.5916431084" /><line stroke="black" stroke-width="5069.99161632267" transform="scale(0.00019723898492860092,-0.00019723898492860092)" x1="1381995.68" x2="1382235.325899869" y1="493060.05" y2="493049.6045254504" /><line stroke="black" stroke-width="5069.99161632267" transform="scale(0.00019723898492860092,-0.00019723898492860092)" x1="1382000.585000004" x2="1382230.887273816" y1="492957.6749999039" y2="492947.6970816004" /><line stroke="black" stroke-width="5069.99161632267" transform="scale(0.00019723898492860092,-0.00019723898492860092)" x1="1382459.120168654" x2="1382677.906177287" y1="493131.974776908" y2="493122.4278748212" /><line stroke="black" stroke-width="5069.99161632267" transform="scale(0.00019723898492860092,-0.00019723898492860092)" x1="1382238.190273372" x2="1382458.599550182" y1="493115.3683403171" y2="493120.0266559538" /><line stroke="black" stroke-width="5069.99161632267" transform="scale(0.00019723898492860092,-0.00019723898492860092)" x1="1381947.429709231" x2="1382229.639107005" y1="493156.2084834568" y2="493161.9281819122" /><line stroke="black" stroke-width="5069.99161632267" transform="scale(0.00019723898492860092,-0.00019723898492860092)" x1="1382250.243034233" x2="1382450.612652182" y1="493162.3214139094" y2="493166.3514306016" /><line stroke="black" stroke-width="5069.99161632267" transform="scale(0.00019723898492860092,-0.00019723898492860092)" x1="1382470.25" x2="1382670.438939698" y1="493166.76" y2="493170.7881785472" /><line stroke="black" stroke-width="5069.99161632267" transform="scale(0.00019723898492860092,-0.00019723898492860092)" x1="1382449.4661239" x2="1382470.25" y1="493166.3283705781" y2="493166.76" /><line stroke="black" stroke-width="5069.99161632267" transform="scale(0.00019723898492860092,-0.00019723898492860092)" x1="1382230.213868262" x2="1382249.670340789" y1="493161.9397365001" y2="493162.3282066307" /><line stroke="black" stroke-width="5069.99161632267" transform="scale(0.00019723898492860092,-0.00019723898492860092)" x1="1381982.461800551" x2="1381986.176919037" y1="493156.959106653" y2="493070.472716729" /><line stroke="black" stroke-width="5069.99161632267" transform="scale(0.00019723898492860092,-0.00019723898492860092)" x1="1381986.176919037" x2="1381991.130715471" y1="493070.472716729" y2="492967.1499998041" /><line stroke="black" stroke-width="5069.99161632267" transform="scale(0.00019723898492860092,-0.00019723898492860092)" x1="1381991.975498286" x2="1381995.79" y1="492949.530128498" y2="492869.97" /><line stroke="black" stroke-width="5069.99161632267" transform="scale(0.00019723898492860092,-0.00019723898492860092)" x1="1382005.217914562" x2="1382656.06188586" y1="492860.980178582" y2="492832.5955265119" /><line stroke="black" stroke-width="5069.99161632267" transform="scale(0.00019723898492860092,-0.00019723898492860092)" x1="1382679.62" x2="1382665.660827976" y1="493161.7899999999" y2="492841.1835144992" /><line stroke="black" stroke-width="5069.99161632267" transform="scale(0.00019723898492860092,-0.00019723898492860092)" x1="1382670.438951304" x2="1382724.986269819" y1="493170.7881787807" y2="493171.8857735758" /><line stroke="black" stroke-width="5069.99161632267" transform="scale(0.00019723898492860092,-0.00019723898492860092)" x1="1382454.909980616" x2="1382724.986269819" y1="493035.3515516284" y2="493023.1530036877" /><line stroke="black" stroke-width="5069.99161632267" transform="scale(0.00019723898492860092,-0.00019723898492860092)" x1="1382724.986269819" x2="1381947.429709231" y1="492926.1724898633" y2="492960.0528680547" /><line stroke="black" stroke-width="5069.99161632267" transform="scale(0.00019723898492860092,-0.00019723898492860092)" x1="1382724.986269819" x2="1381947.429709231" y1="492829.5895915351" y2="492863.5004417702" /><line stroke="black" stroke-width="5069.99161632267" transform="scale(0.00019723898492860092,-0.00019723898492860092)" x1="1381995.831281931" x2="1381999.446715952" y1="492869.1089712124" y2="492793.700853237" /><line stroke="black" stroke-width="5069.99161632267" transform="scale(0.00019723898492860092,-0.00019723898492860092)" x1="1381991.975498286" x2="1381991.130715472" y1="492949.530128498" y2="492967.1499997935" /><line stroke="black" stroke-width="5069.99161632267" transform="scale(0.00019723898492860092,-0.00019723898492860092)" x1="1382227.08" x2="1382224.23342764" y1="492860.2849999992" y2="492794.9298857236" /><line stroke="black" stroke-width="5069.99161632267" transform="scale(0.00019723898492860092,-0.00019723898492860092)" x1="1382446.864775758" x2="1382444.486499897" y1="492850.7152279348" y2="492796.134130312" /><line stroke="black" stroke-width="5069.99161632267" transform="scale(0.00019723898492860092,-0.00019723898492860092)" x1="1382680.020173894" x2="1382663.751580099" y1="493170.9809710266" y2="492797.332973005" /><line stroke="black" stroke-width="5069.99161632267" transform="scale(0.00019723898492860092,-0.00019723898492860092)" x1="1381995.679999999" x2="1381947.429709231" y1="493060.05" y2="493062.1530912047" /></svg>